<?xml version="1.0" standalone="no"?>
<!DOCTYPE svg PUBLIC "-//W3C//DTD SVG 20010904//EN"
 "http://www.w3.org/TR/2001/REC-SVG-20010904/DTD/svg10.dtd">
<svg version="1.0" xmlns="http://www.w3.org/2000/svg"
 width="700.000000pt" height="700.000000pt" viewBox="0 0 700.000000 700.000000"
 preserveAspectRatio="xMidYMid meet">
<metadata>
Created by potrace 1.14, written by Peter Selinger 2001-2017
</metadata>
<g transform="translate(0.000000,700.000000) scale(0.100000,-0.100000)"
fill="#000000" stroke="none">
<path d="M2817 6824 c-1 -1 -30 -4 -63 -7 -118 -11 -308 -67 -366 -108 -14
-11 -30 -19 -35 -19 -28 0 -213 -143 -363 -280 -47 -43 -96 -87 -110 -98 -33
-25 -219 -130 -295 -166 -170 -80 -269 -134 -363 -198 -96 -64 -113 -79 -196
-163 -207 -208 -279 -458 -215 -738 l11 -49 32 29 c55 51 149 102 221 120 49
12 187 14 236 4 137 -30 279 -133 347 -253 70 -121 87 -297 43 -423 l-20 -57
52 6 c29 3 71 9 95 12 25 4 42 2 42 -4 0 -18 129 -149 202 -205 104 -79 264
-160 358 -182 130 -31 180 -37 290 -38 69 -1 144 2 166 6 38 6 42 5 48 -17 21
-83 33 -220 32 -362 l-1 -134 535 0 535 0 -3 266 -2 265 42 -7 c117 -17 155
-21 226 -18 177 5 305 42 453 128 79 46 203 156 254 224 42 57 108 77 245 76
109 0 149 -5 270 -29 37 -8 182 -8 216 -1 16 3 40 8 53 11 36 7 119 35 150 51
14 8 30 14 34 14 12 0 93 56 151 104 50 41 137 153 168 216 119 239 87 531
-80 738 l-35 44 -36 -35 c-58 -56 -141 -102 -222 -124 -322 -87 -633 146 -648
487 -6 153 -155 324 -431 496 -135 85 -350 173 -465 192 -53 8 -208 7 -375 -3
-291 -19 -345 -10 -543 84 -172 82 -244 109 -327 124 -14 3 -41 8 -61 12 -31
6 -246 14 -252 9z m103 -758 c14 -3 41 -9 60 -12 159 -30 367 -142 509 -274
122 -114 283 -143 446 -82 439 164 916 -2 1140 -397 66 -117 68 -171 8 -171
-25 0 -37 11 -131 118 -193 222 -531 336 -832 283 -36 -7 -112 -27 -170 -46
-128 -41 -174 -47 -255 -30 -82 18 -148 52 -215 114 -77 71 -188 147 -273 186
-73 34 -182 72 -227 80 -14 3 -47 9 -75 14 -53 11 -319 8 -370 -3 -283 -65
-514 -207 -665 -409 -46 -61 -74 -79 -108 -70 -29 7 -32 30 -11 83 54 144 200
321 356 433 116 84 326 168 457 183 28 4 53 9 56 11 6 6 266 -4 300 -11z"/>
<path d="M1524 6741 c-130 -58 -163 -226 -66 -329 109 -117 301 -73 346 78 8
28 13 60 10 72 -2 13 -7 38 -10 55 -7 37 -71 108 -112 125 -47 18 -125 18
-168 -1z"/>
<path d="M5710 6246 c-103 -27 -179 -87 -228 -181 -24 -45 -27 -61 -27 -150 1
-84 4 -107 23 -143 31 -59 85 -116 138 -147 59 -35 83 -40 179 -40 67 0 89 4
137 28 117 57 182 159 192 300 3 42 -25 142 -51 182 -80 124 -229 185 -363
151z"/>
<path d="M1134 4980 c-150 -30 -271 -169 -278 -321 -7 -143 60 -261 186 -330
59 -32 69 -34 158 -34 82 0 103 4 150 26 70 33 135 99 169 169 22 47 26 68 26
150 0 105 -12 142 -71 216 -80 99 -215 148 -340 124z"/>
<path d="M5855 4253 c-102 -27 -258 -37 -345 -22 -30 5 -73 11 -95 14 -22 3
-62 9 -90 13 -59 9 -148 7 -169 -5 -8 -4 -44 -41 -81 -80 l-67 -73 39 -1 c21
-1 47 -3 58 -4 11 -1 45 -5 75 -8 109 -13 172 -22 287 -43 205 -38 433 -112
538 -175 67 -40 138 -115 165 -173 51 -113 84 -317 84 -516 0 -79 -11 -261
-18 -295 -3 -19 -14 -91 -21 -145 -3 -22 -30 -148 -40 -190 -28 -114 -95 -306
-141 -405 -15 -33 -28 -62 -29 -65 -13 -49 -149 -277 -238 -400 -61 -85 -76
-103 -152 -189 -385 -439 -960 -750 -1580 -855 -201 -34 -277 -40 -520 -40
-354 -1 -556 26 -860 113 -875 253 -1538 896 -1793 1737 -34 113 -59 211 -67
269 -4 22 -8 47 -10 55 -2 8 -7 38 -11 65 -3 28 -8 59 -10 70 -17 79 -23 403
-11 533 12 133 52 248 115 330 60 79 222 166 392 211 163 43 501 110 628 125
15 2 30 4 35 5 4 0 -25 32 -65 70 l-71 70 -117 -3 c-108 -2 -120 -5 -151 -28
-19 -14 -57 -37 -84 -51 -158 -79 -372 -68 -509 26 -36 25 -55 19 -155 -48
-218 -146 -342 -380 -369 -695 -12 -141 -4 -480 13 -568 2 -10 6 -45 9 -78 4
-32 13 -90 21 -129 8 -38 16 -81 19 -95 17 -101 87 -327 146 -476 201 -503
535 -931 991 -1266 166 -123 428 -269 629 -351 181 -74 468 -159 625 -186 33
-6 73 -13 89 -15 16 -3 50 -8 75 -12 25 -3 57 -8 71 -10 155 -25 692 -25 827
0 10 2 43 7 73 11 30 4 62 9 71 10 9 2 33 6 52 9 77 12 228 48 347 83 792 228
1448 754 1810 1449 134 257 258 620 285 835 4 30 8 56 10 59 2 3 6 30 10 60 4
30 9 66 10 80 23 169 23 529 0 610 -2 8 -6 35 -9 60 -14 122 -66 280 -127 383
-53 89 -164 199 -255 253 -62 36 -235 116 -245 113 -2 -1 -44 -13 -94 -26z"/>
<path d="M2289 3896 c-2 -2 -44 -6 -94 -10 -49 -3 -101 -8 -115 -10 -14 -2
-54 -7 -90 -10 -36 -3 -76 -8 -90 -10 -14 -3 -47 -7 -73 -10 -27 -3 -52 -8
-55 -10 -4 -2 -31 -7 -61 -10 -29 -4 -57 -8 -61 -11 -4 -2 -21 -7 -38 -10 -54
-9 -138 -44 -157 -65 -18 -20 -18 -21 4 -44 35 -37 245 -92 422 -111 31 -3 65
-7 75 -9 11 -2 48 -7 84 -11 36 -3 76 -8 90 -10 14 -2 72 -6 130 -10 58 -4
119 -8 136 -10 18 -2 94 -7 170 -10 77 -3 158 -8 182 -10 l43 -3 -2 159 -1
159 -81 1 c-119 1 -260 23 -351 55 -42 14 -60 17 -67 10z"/>
<path d="M4588 3875 c-69 -21 -114 -31 -183 -40 -11 -1 -61 -3 -110 -4 l-91
-1 2 -102 c1 -57 2 -128 3 -159 l1 -56 53 3 c28 1 113 5 187 9 74 3 158 8 185
10 28 2 86 7 130 10 44 4 96 8 115 10 19 2 64 6 100 9 36 4 76 8 90 11 14 2
47 7 74 10 226 28 415 81 431 123 15 40 -91 87 -260 117 -127 22 -136 23 -220
34 -103 13 -165 20 -245 26 -36 2 -92 6 -125 9 -45 3 -80 -2 -137 -19z"/>
<path d="M2369 3189 c-186 -25 -369 -152 -457 -316 -146 -274 -65 -622 186
-801 l43 -30 147 3 c149 3 186 1 387 -29 36 -5 140 65 218 148 60 65 131 208
147 300 25 139 -2 298 -72 423 -88 157 -269 280 -438 299 -89 10 -106 10 -161
3z"/>
<path d="M4510 3192 c-144 -14 -272 -74 -376 -177 -152 -150 -212 -348 -172
-568 19 -100 94 -237 173 -312 71 -68 172 -129 197 -120 42 16 251 33 381 30
l148 -3 57 43 c32 23 73 62 92 86 19 24 38 46 41 49 4 3 23 37 42 75 111 224
86 473 -67 670 -93 120 -238 202 -388 221 -73 9 -92 10 -128 6z"/>
<path d="M3229 1636 c-2 -2 -42 -7 -89 -10 -130 -10 -233 -27 -313 -53 l-48
-15 6 -42 c22 -129 112 -303 206 -397 137 -137 292 -197 511 -197 227 -1 417
81 539 232 63 78 60 73 90 131 38 72 78 188 81 237 l3 42 -70 18 c-38 10 -101
23 -140 28 -38 5 -90 12 -115 16 -49 6 -655 15 -661 10z"/>
</g>
</svg>
